<?xml version="1.0" encoding="UTF-8"?>
<svg xmlns="http://www.w3.org/2000/svg" xmlns:xlink="http://www.w3.org/1999/xlink" width="40pt" height="40pt" viewBox="0 0 40 40" version="1.1">
<g id="surface1">
<path style=" stroke:none;fill-rule:nonzero;fill:rgb(100%,100%,100%);fill-opacity:1;" d="M 0 0 L 0 18.359375 L 0.078125 18.359375 C 0.0820312 16.703125 0.566406 14.984375 1.117188 13.4375 C 2.972656 8.242188 6.925781 3.960938 11.953125 1.695312 C 13.878906 0.828125 16.148438 0.0859375 18.28125 0.078125 L 16.5625 0 Z M 0 0 "/>
<path style=" stroke:none;fill-rule:nonzero;fill:rgb(0.392157%,0.392157%,0.392157%);fill-opacity:1;" d="M 18.28125 0.03125 C 14.667969 0.507812 11.355469 1.5625 8.359375 3.707031 C 6.246094 5.214844 4.421875 7.175781 3.042969 9.375 C -2.496094 18.222656 -0.242188 30.410156 8.4375 36.40625 C 10.394531 37.753906 12.539062 38.777344 14.84375 39.382812 C 17.28125 40.023438 19.921875 40.203125 22.421875 39.898438 C 25.371094 39.542969 28.285156 38.554688 30.78125 36.925781 C 33.601562 35.085938 35.945312 32.636719 37.589844 29.6875 C 42.378906 21.097656 39.828125 9.890625 32.03125 3.996094 C 30.089844 2.527344 27.886719 1.414062 25.546875 0.75 C 23.261719 0.0976562 20.65625 -0.28125 18.28125 0.03125 Z M 18.28125 0.03125 "/>
<path style=" stroke:none;fill-rule:nonzero;fill:rgb(100%,100%,100%);fill-opacity:1;" d="M 21.71875 0 L 21.71875 0.078125 C 23.851562 0.0859375 26.121094 0.828125 28.046875 1.695312 C 33.074219 3.960938 37.027344 8.242188 38.882812 13.4375 C 39.433594 14.984375 39.917969 16.703125 39.921875 18.359375 L 40 18.359375 L 40 0 L 21.71875 0 M 14.140625 36.5625 L 14.140625 33.515625 C 12.636719 33.632812 11.207031 33.625 10 32.5625 C 8.828125 31.535156 8.265625 29.75 6.5625 29.53125 L 6.40625 27.1875 C 7.878906 27.1875 9.039062 27.714844 10.03125 28.835938 C 10.585938 29.464844 10.941406 30.304688 11.640625 30.796875 C 12.164062 31.164062 13.578125 31.484375 14.074219 30.898438 C 14.375 30.542969 14.605469 29.375 14.6875 28.90625 C 9.828125 27.78125 6.378906 23.207031 6.976562 18.203125 C 7.105469 17.101562 7.375 16.011719 7.835938 15 C 8.097656 14.425781 8.601562 13.875 8.785156 13.28125 C 8.921875 12.832031 8.695312 12.257812 8.675781 11.796875 C 8.613281 10.417969 8.632812 8.578125 9.765625 7.59375 C 11.597656 6.007812 14.023438 8.578125 15.703125 9.007812 C 16.167969 9.128906 16.800781 8.859375 17.265625 8.78125 C 18.234375 8.621094 19.25 8.492188 20.234375 8.515625 C 21.144531 8.539062 22.070312 8.667969 22.96875 8.820312 C 23.378906 8.890625 23.882812 9.113281 24.296875 9.007812 C 26.085938 8.550781 27.394531 6.84375 29.453125 7.214844 C 31.347656 7.550781 31.421875 10.410156 31.320312 11.875 C 31.292969 12.308594 31.085938 12.855469 31.214844 13.28125 C 31.398438 13.875 31.902344 14.425781 32.164062 15 C 32.625 16.011719 32.894531 17.101562 33.023438 18.203125 C 33.621094 23.207031 30.171875 27.78125 25.3125 28.90625 L 25.847656 30.9375 L 25.859375 36.5625 C 27.683594 36.0625 29.472656 34.953125 30.9375 33.78125 C 37.410156 28.609375 39.476562 19.433594 35.683594 12.03125 C 32.425781 5.675781 25.777344 2.117188 18.75 2.425781 C 16.90625 2.503906 15.0625 3.019531 13.359375 3.703125 C 11.585938 4.414062 9.960938 5.457031 8.515625 6.699219 C 0.578125 13.503906 0.488281 25.949219 8.125 32.976562 C 9.792969 34.511719 11.925781 35.957031 14.140625 36.5625 M 11.25 9.609375 C 11.050781 10.375 11.019531 11.246094 11.117188 12.03125 C 11.179688 12.554688 11.449219 13.144531 11.351562 13.671875 C 11.222656 14.347656 10.632812 14.886719 10.300781 15.46875 C 9.816406 16.316406 9.523438 17.316406 9.398438 18.28125 C 8.96875 21.53125 10.644531 24.683594 13.671875 26.027344 C 15.34375 26.769531 17.082031 26.84375 18.828125 27.265625 C 18.128906 28.171875 17.15625 29.316406 16.761719 30.390625 C 16.023438 32.390625 16.484375 35.15625 16.484375 37.265625 C 18.808594 37.703125 21.191406 37.703125 23.515625 37.265625 C 23.515625 35.15625 23.976562 32.390625 23.238281 30.390625 C 22.84375 29.316406 21.871094 28.171875 21.171875 27.265625 C 22.917969 26.84375 24.65625 26.769531 26.328125 26.027344 C 29.355469 24.683594 31.03125 21.53125 30.601562 18.28125 C 30.472656 17.285156 30.160156 16.261719 29.660156 15.390625 C 29.339844 14.828125 28.773438 14.332031 28.648438 13.671875 C 28.550781 13.144531 28.820312 12.554688 28.882812 12.03125 C 28.980469 11.246094 28.949219 10.375 28.75 9.609375 L 26.171875 10.726562 L 24.609375 11.53125 L 22.890625 11.265625 L 20 10.9375 L 17.109375 11.265625 L 15.234375 11.488281 L 11.25 9.609375 M 0 21.796875 L 0 40 L 18.28125 40 L 18.28125 39.921875 C 11.363281 39.917969 4.601562 34.492188 1.820312 28.4375 C 1.199219 27.085938 0.714844 25.671875 0.40625 24.21875 C 0.246094 23.46875 0.289062 22.484375 0 21.796875 M 39.921875 21.796875 C 39.921875 23.84375 39.226562 26.027344 38.425781 27.890625 C 35.714844 34.199219 28.875 39.917969 21.71875 39.921875 L 21.71875 40 L 40 40 L 40 23.515625 Z M 39.921875 21.796875 "/>
</g>
</svg>
