<?xml version="1.0" encoding="UTF-8"?>
<svg xmlns="http://www.w3.org/2000/svg" xmlns:xlink="http://www.w3.org/1999/xlink" width="30px" height="px" viewBox="0 0 30 30" version="1.1">
<g id="surface1">
<path style=" stroke:none;fill-rule:nonzero;fill:rgb(100%,100%,100%);fill-opacity:1;" d="M 0 0 L 0 13.769531 L 0.0585938 13.769531 C 0.0625 12.527344 0.425781 11.238281 0.839844 10.078125 C 2.230469 6.183594 5.195312 2.972656 8.964844 1.269531 C 10.410156 0.621094 12.113281 0.0664062 13.710938 0.0585938 L 12.421875 0 Z M 0 0 "/>
<path style=" stroke:none;fill-rule:nonzero;fill:rgb(0.392157%,0.392157%,0.392157%);fill-opacity:1;" d="M 13.710938 0.0234375 C 11 0.378906 8.515625 1.171875 6.269531 2.78125 C 4.683594 3.910156 3.316406 5.382812 2.28125 7.03125 C -1.871094 13.667969 -0.183594 22.808594 6.328125 27.304688 C 7.796875 28.316406 9.402344 29.082031 11.132812 29.535156 C 12.960938 30.019531 14.941406 30.152344 16.816406 29.925781 C 19.027344 29.65625 21.214844 28.917969 23.085938 27.695312 C 25.199219 26.316406 26.957031 24.476562 28.191406 22.265625 C 31.785156 15.824219 29.871094 7.417969 24.023438 2.996094 C 22.566406 1.894531 20.914062 1.058594 19.160156 0.5625 C 17.445312 0.0742188 15.492188 -0.210938 13.710938 0.0234375 Z M 13.710938 0.0234375 "/>
<path style=" stroke:none;fill-rule:nonzero;fill:rgb(100%,100%,100%);fill-opacity:1;" d="M 16.289062 0 L 16.289062 0.0585938 C 17.886719 0.0664062 19.589844 0.621094 21.035156 1.269531 C 24.804688 2.972656 27.769531 6.183594 29.160156 10.078125 C 29.574219 11.238281 29.9375 12.527344 29.941406 13.769531 L 30 13.769531 L 30 0 L 16.289062 0 M 10.605469 27.421875 L 10.605469 25.136719 C 9.476562 25.222656 8.40625 25.21875 7.5 24.421875 C 6.621094 23.652344 6.199219 22.3125 4.921875 22.148438 L 4.804688 20.390625 C 5.910156 20.390625 6.777344 20.785156 7.523438 21.628906 C 7.941406 22.097656 8.207031 22.730469 8.730469 23.097656 C 9.121094 23.371094 10.183594 23.613281 10.554688 23.175781 C 10.78125 22.90625 10.953125 22.03125 11.015625 21.679688 C 7.371094 20.835938 4.785156 17.40625 5.230469 13.652344 C 5.328125 12.824219 5.53125 12.007812 5.878906 11.25 C 6.074219 10.820312 6.449219 10.40625 6.589844 9.960938 C 6.691406 9.625 6.519531 9.191406 6.507812 8.847656 C 6.460938 7.8125 6.472656 6.433594 7.324219 5.695312 C 8.699219 4.503906 10.519531 6.433594 11.777344 6.753906 C 12.125 6.847656 12.601562 6.644531 12.949219 6.585938 C 13.675781 6.464844 14.4375 6.371094 15.175781 6.386719 C 15.859375 6.402344 16.550781 6.5 17.226562 6.613281 C 17.535156 6.667969 17.910156 6.835938 18.222656 6.753906 C 19.566406 6.414062 20.546875 5.132812 22.089844 5.410156 C 23.511719 5.664062 23.566406 7.808594 23.488281 8.90625 C 23.46875 9.230469 23.316406 9.640625 23.410156 9.960938 C 23.550781 10.40625 23.925781 10.820312 24.121094 11.25 C 24.46875 12.007812 24.671875 12.824219 24.769531 13.652344 C 25.214844 17.40625 22.628906 20.835938 18.984375 21.679688 L 19.386719 23.203125 L 19.394531 27.421875 C 20.761719 27.046875 22.105469 26.214844 23.203125 25.335938 C 28.058594 21.457031 29.605469 14.574219 26.761719 9.023438 C 24.320312 4.257812 19.332031 1.589844 14.0625 1.820312 C 12.679688 1.878906 11.296875 2.265625 10.019531 2.777344 C 8.691406 3.308594 7.472656 4.09375 6.386719 5.023438 C 0.433594 10.128906 0.367188 19.460938 6.09375 24.730469 C 7.34375 25.882812 8.945312 26.96875 10.605469 27.421875 M 8.4375 7.207031 C 8.289062 7.78125 8.265625 8.433594 8.339844 9.023438 C 8.386719 9.417969 8.585938 9.859375 8.511719 10.253906 C 8.417969 10.761719 7.972656 11.164062 7.726562 11.601562 C 7.363281 12.238281 7.144531 12.988281 7.050781 13.710938 C 6.726562 16.148438 7.984375 18.511719 10.253906 19.519531 C 11.507812 20.078125 12.8125 20.132812 14.121094 20.449219 C 13.597656 21.128906 12.867188 21.988281 12.570312 22.792969 C 12.019531 24.292969 12.363281 26.367188 12.363281 27.949219 C 14.105469 28.277344 15.894531 28.277344 17.636719 27.949219 C 17.636719 26.367188 17.980469 24.292969 17.429688 22.792969 C 17.132812 21.988281 16.402344 21.128906 15.878906 20.449219 C 17.1875 20.132812 18.492188 20.078125 19.746094 19.519531 C 22.015625 18.511719 23.273438 16.148438 22.949219 13.710938 C 22.855469 12.964844 22.621094 12.195312 22.246094 11.542969 C 22.003906 11.121094 21.582031 10.75 21.488281 10.253906 C 21.414062 9.859375 21.613281 9.417969 21.660156 9.023438 C 21.734375 8.433594 21.710938 7.78125 21.5625 7.207031 L 19.628906 8.042969 L 18.457031 8.648438 L 17.167969 8.449219 L 15 8.203125 L 12.832031 8.449219 L 11.425781 8.617188 L 8.4375 7.207031 M 0 16.347656 L 0 30 L 13.710938 30 L 13.710938 29.941406 C 8.523438 29.9375 3.449219 25.871094 1.363281 21.328125 C 0.898438 20.316406 0.535156 19.253906 0.304688 18.164062 C 0.183594 17.601562 0.214844 16.863281 0 16.347656 M 29.941406 16.347656 C 29.941406 17.882812 29.417969 19.519531 28.820312 20.917969 C 26.785156 25.648438 21.65625 29.9375 16.289062 29.941406 L 16.289062 30 L 30 30 L 30 17.636719 Z M 29.941406 16.347656 "/>
</g>
</svg>
