<?xml version="1.0" encoding="UTF-8"?>
<svg xmlns="http://www.w3.org/2000/svg" xmlns:xlink="http://www.w3.org/1999/xlink" width="30px" height="px" viewBox="0 0 30 30" version="1.1">
<g id="surface1">
<rect x="0" y="0" width="30" height="30" style="fill:rgb(100%,100%,100%);fill-opacity:1;stroke:none;"/>
<path style=" stroke:none;fill-rule:nonzero;fill:rgb(0.392157%,0.392157%,0.392157%);fill-opacity:1;" d="M 4.570312 14.414062 C 4.570312 17.722656 4.894531 20.738281 7.214844 23.320312 C 7.917969 24.097656 8.738281 24.644531 9.550781 25.285156 C 10.445312 25.988281 11.164062 26.714844 12.246094 27.152344 C 13.429688 27.632812 14.503906 27.472656 15.699219 27.664062 C 16.011719 27.714844 16.253906 28.089844 16.523438 28.25 C 17.140625 28.628906 17.894531 28.6875 18.574219 28.445312 C 19.363281 28.164062 19.855469 27.464844 20.003906 26.660156 C 20.070312 26.277344 19.949219 25.867188 20.222656 25.546875 C 20.570312 25.144531 21.085938 24.882812 21.503906 24.558594 C 22.085938 24.105469 22.597656 23.589844 23.066406 23.027344 C 25.199219 20.507812 25.488281 17.566406 25.488281 14.414062 C 29.21875 14.089844 30.117188 8.9375 27.707031 6.65625 C 27.054688 6.042969 26.253906 5.632812 25.371094 5.476562 C 25.011719 5.414062 24.335938 5.546875 24.042969 5.386719 C 23.738281 5.222656 23.496094 4.714844 23.265625 4.453125 C 22.726562 3.84375 22.125 3.300781 21.445312 2.839844 C 18.910156 1.140625 15.824219 1.222656 12.890625 1.351562 C 10.964844 1.433594 8.976562 2.367188 7.558594 3.640625 C 7.027344 4.121094 6.605469 4.96875 6.027344 5.351562 C 5.695312 5.570312 4.816406 5.4375 4.394531 5.535156 C 3.28125 5.785156 2.300781 6.5 1.667969 7.441406 C 0.0351562 9.882812 1.339844 14.152344 4.570312 14.414062 Z M 4.570312 14.414062 "/>
<path style=" stroke:none;fill-rule:nonzero;fill:rgb(100%,100%,100%);fill-opacity:1;" d="M 8.144531 22.792969 C 7.625 21.171875 7.613281 19.539062 8.183594 17.929688 C 8.363281 17.4375 8.597656 16.96875 8.871094 16.523438 C 8.980469 16.351562 9.238281 16.097656 9.238281 15.882812 C 9.234375 15.667969 8.925781 15.484375 8.789062 15.351562 C 8.441406 15.011719 8.175781 14.628906 7.996094 14.179688 C 7.191406 12.199219 8.46875 9.972656 10.546875 9.550781 C 11.582031 9.34375 12.699219 9.691406 13.46875 10.40625 C 13.828125 10.742188 14.058594 11.472656 14.4375 11.714844 C 14.652344 11.855469 15.160156 11.796875 15.40625 11.773438 C 15.835938 11.734375 16.164062 10.796875 16.472656 10.496094 C 17.398438 9.597656 18.816406 9.226562 20.039062 9.703125 C 22.71875 10.753906 23.007812 14.230469 20.683594 15.820312 C 21.070312 16.441406 21.484375 17.015625 21.769531 17.695312 C 22.492188 19.390625 22.3125 21.058594 21.914062 22.792969 C 22.441406 22.410156 22.820312 21.757812 23.15625 21.210938 C 24.519531 18.988281 24.492188 16.632812 24.492188 14.121094 C 24.492188 11.832031 24.761719 9.425781 23.878906 7.265625 C 22.898438 4.859375 20.6875 3.050781 18.164062 2.488281 C 17.105469 2.246094 16.023438 2.285156 14.941406 2.285156 C 12.050781 2.285156 9.519531 2.839844 7.507812 5.097656 C 5.03125 7.882812 5.507812 11.667969 5.507812 15.117188 C 5.507812 17.175781 5.714844 19.082031 6.722656 20.917969 C 7.078125 21.570312 7.527344 22.355469 8.144531 22.792969 M 4.570312 13.417969 C 4.570312 10.917969 4.53125 8.730469 5.507812 6.386719 C 3.941406 6.386719 2.515625 7.386719 2.054688 8.90625 C 1.507812 10.6875 2.574219 13.121094 4.570312 13.417969 M 24.550781 6.386719 C 24.769531 7.140625 25.132812 7.832031 25.292969 8.613281 C 25.621094 10.175781 25.488281 11.832031 25.488281 13.417969 C 27.507812 13.117188 28.535156 10.632812 27.964844 8.847656 C 27.488281 7.363281 26.089844 6.386719 24.550781 6.386719 M 15.46875 26.71875 L 15.46875 23.144531 C 14.738281 23.144531 13.964844 23.222656 13.242188 23.136719 C 12.964844 23.105469 12.683594 22.867188 12.773438 22.558594 C 12.867188 22.238281 13.195312 22.210938 13.476562 22.207031 C 14.140625 22.203125 14.804688 22.207031 15.46875 22.207031 L 18.691406 22.207031 C 19.050781 22.207031 19.628906 22.097656 19.894531 22.398438 C 20.222656 22.761719 20.039062 23.734375 20.039062 24.199219 C 21.570312 22.683594 21.628906 19.789062 20.832031 17.929688 C 20.539062 17.246094 19.589844 16.390625 19.601562 15.644531 C 19.613281 15.160156 20.546875 14.78125 20.828125 14.414062 C 21.777344 13.183594 21.308594 11.277344 19.863281 10.660156 C 18.808594 10.214844 17.546875 10.5625 16.871094 11.484375 C 16.617188 11.832031 16.574219 12.425781 16.222656 12.679688 C 15.972656 12.863281 15.632812 12.753906 15.351562 12.722656 C 14.921875 12.683594 14.484375 12.828125 14.0625 12.777344 C 13.503906 12.707031 13.382812 11.769531 13.082031 11.367188 C 12.367188 10.417969 10.902344 10.214844 9.902344 10.800781 C 8.628906 11.550781 8.339844 13.332031 9.246094 14.472656 C 9.535156 14.839844 10.460938 15.152344 10.433594 15.667969 C 10.394531 16.269531 9.808594 16.792969 9.519531 17.285156 C 9.109375 17.976562 8.867188 18.777344 8.757812 19.570312 C 8.367188 22.289062 9.929688 25.050781 12.421875 26.175781 C 13.398438 26.613281 14.414062 26.71875 15.46875 26.71875 Z M 15.46875 26.71875 "/>
<path style=" stroke:none;fill-rule:nonzero;fill:rgb(0.392157%,0.392157%,0.392157%);fill-opacity:1;" d="M 19.101562 11.347656 C 18.238281 11.617188 18.699219 12.964844 19.570312 12.664062 C 20.417969 12.375 19.953125 11.082031 19.101562 11.347656 M 10.957031 13.164062 C 10.09375 13.429688 10.507812 14.761719 11.367188 14.492188 C 12.230469 14.226562 11.820312 12.894531 10.957031 13.164062 M 13.242188 14.96875 C 12.429688 15.113281 11.761719 15.6875 11.488281 16.464844 C 11.355469 16.855469 11.207031 17.667969 11.835938 17.6875 C 12.398438 17.699219 12.511719 16.429688 13.007812 16.109375 C 13.761719 15.628906 15.484375 15.78125 16.347656 15.894531 C 16.847656 15.960938 17.285156 16.183594 17.535156 16.640625 C 17.738281 17.011719 17.675781 17.851562 18.335938 17.667969 C 18.679688 17.574219 18.6875 17.222656 18.648438 16.933594 C 18.558594 16.289062 18.242188 15.699219 17.695312 15.328125 C 16.84375 14.746094 15.683594 14.941406 14.707031 14.941406 C 14.230469 14.941406 13.710938 14.882812 13.242188 14.96875 M 13.710938 16.328125 C 12.863281 16.585938 13.09375 18.421875 14.0625 18.125 C 14.910156 17.867188 14.679688 16.03125 13.710938 16.328125 M 15.996094 16.324219 C 15.160156 16.554688 15.34375 18.371094 16.289062 18.136719 C 17.175781 17.917969 16.957031 16.058594 15.996094 16.324219 Z M 15.996094 16.324219 "/>
<path style=" stroke:none;fill-rule:nonzero;fill:rgb(100%,100%,100%);fill-opacity:1;" d="M 16.40625 23.144531 L 16.40625 25.546875 C 16.40625 25.996094 16.347656 26.480469 16.5625 26.894531 C 17.054688 27.832031 18.445312 27.855469 18.925781 26.894531 C 19.417969 25.910156 19.101562 24.222656 19.101562 23.144531 L 18.222656 23.144531 C 18.222656 23.460938 18.304688 23.910156 18.152344 24.199219 C 17.988281 24.511719 17.542969 24.589844 17.355469 24.253906 C 17.191406 23.964844 17.285156 23.464844 17.285156 23.144531 Z M 16.40625 23.144531 "/>
</g>
</svg>
