<?xml version="1.0" encoding="UTF-8"?>
<svg xmlns="http://www.w3.org/2000/svg" xmlns:xlink="http://www.w3.org/1999/xlink" width="40pt" height="40pt" viewBox="0 0 40 40" version="1.1">
<g id="surface1">
<rect x="0" y="0" width="40" height="40" style="fill:rgb(100%,100%,100%);fill-opacity:1;stroke:none;"/>
<path style=" stroke:none;fill-rule:nonzero;fill:rgb(0.392157%,0.392157%,0.392157%);fill-opacity:1;" d="M 6.09375 19.21875 C 6.09375 23.628906 6.523438 27.648438 9.621094 31.09375 C 10.558594 32.132812 11.652344 32.859375 12.734375 33.710938 C 13.925781 34.652344 14.886719 35.617188 16.328125 36.203125 C 17.90625 36.84375 19.339844 36.628906 20.933594 36.886719 C 21.351562 36.953125 21.671875 37.453125 22.03125 37.667969 C 22.855469 38.171875 23.859375 38.25 24.765625 37.925781 C 25.820312 37.550781 26.476562 36.621094 26.671875 35.546875 C 26.761719 35.035156 26.601562 34.488281 26.964844 34.0625 C 27.425781 33.523438 28.113281 33.175781 28.671875 32.742188 C 29.449219 32.140625 30.128906 31.453125 30.757812 30.703125 C 33.597656 27.34375 33.984375 23.421875 33.984375 19.21875 C 38.957031 18.785156 40.15625 11.917969 36.941406 8.875 C 36.074219 8.054688 35.003906 7.511719 33.828125 7.300781 C 33.351562 7.21875 32.449219 7.394531 32.054688 7.183594 C 31.648438 6.960938 31.328125 6.285156 31.019531 5.9375 C 30.300781 5.125 29.5 4.398438 28.59375 3.789062 C 25.210938 1.519531 21.101562 1.628906 17.1875 1.800781 C 14.621094 1.914062 11.96875 3.15625 10.078125 4.855469 C 9.367188 5.496094 8.808594 6.625 8.035156 7.136719 C 7.59375 7.425781 6.421875 7.25 5.859375 7.378906 C 4.375 7.710938 3.070312 8.667969 2.226562 9.921875 C 0.046875 13.175781 1.785156 18.867188 6.09375 19.21875 Z M 6.09375 19.21875 "/>
<path style=" stroke:none;fill-rule:nonzero;fill:rgb(100%,100%,100%);fill-opacity:1;" d="M 10.859375 30.390625 C 10.167969 28.230469 10.148438 26.050781 10.914062 23.90625 C 11.148438 23.25 11.460938 22.625 11.828125 22.03125 C 11.976562 21.800781 12.320312 21.460938 12.316406 21.175781 C 12.3125 20.890625 11.898438 20.644531 11.71875 20.46875 C 11.257812 20.015625 10.902344 19.507812 10.660156 18.90625 C 9.589844 16.265625 11.292969 13.296875 14.0625 12.734375 C 15.441406 12.457031 16.933594 12.921875 17.957031 13.875 C 18.4375 14.324219 18.742188 15.296875 19.25 15.621094 C 19.539062 15.808594 20.210938 15.730469 20.542969 15.699219 C 21.113281 15.644531 21.550781 14.394531 21.960938 13.996094 C 23.199219 12.796875 25.085938 12.300781 26.71875 12.9375 C 30.292969 14.335938 30.675781 18.976562 27.578125 21.09375 C 28.09375 21.921875 28.644531 22.6875 29.027344 23.59375 C 29.988281 25.855469 29.75 28.078125 29.21875 30.390625 C 29.921875 29.882812 30.425781 29.011719 30.875 28.28125 C 32.691406 25.316406 32.65625 22.175781 32.65625 18.828125 C 32.65625 15.777344 33.015625 12.570312 31.839844 9.6875 C 30.53125 6.480469 27.582031 4.066406 24.21875 3.316406 C 22.804688 2.996094 21.363281 3.046875 19.921875 3.046875 C 16.070312 3.046875 12.691406 3.785156 10.011719 6.796875 C 6.707031 10.511719 7.34375 15.558594 7.34375 20.15625 C 7.34375 22.898438 7.617188 25.445312 8.960938 27.890625 C 9.4375 28.761719 10.035156 29.804688 10.859375 30.390625 M 6.09375 17.890625 C 6.09375 14.558594 6.042969 11.640625 7.34375 8.515625 C 5.253906 8.515625 3.355469 9.847656 2.738281 11.875 C 2.011719 14.25 3.433594 17.492188 6.09375 17.890625 M 32.734375 8.515625 C 33.023438 9.519531 33.511719 10.441406 33.726562 11.484375 C 34.160156 13.566406 33.984375 15.777344 33.984375 17.890625 C 36.675781 17.488281 38.046875 14.175781 37.285156 11.796875 C 36.652344 9.820312 34.789062 8.515625 32.734375 8.515625 M 20.625 35.625 L 20.625 30.859375 C 19.652344 30.859375 18.621094 30.960938 17.65625 30.851562 C 17.289062 30.808594 16.914062 30.488281 17.03125 30.078125 C 17.15625 29.652344 17.59375 29.613281 17.96875 29.609375 C 18.855469 29.605469 19.738281 29.609375 20.625 29.609375 L 24.921875 29.609375 C 25.402344 29.609375 26.171875 29.460938 26.527344 29.863281 C 26.964844 30.351562 26.71875 31.644531 26.71875 32.265625 C 28.761719 30.242188 28.839844 26.386719 27.777344 23.90625 C 27.386719 22.992188 26.121094 21.855469 26.136719 20.859375 C 26.148438 20.210938 27.394531 19.707031 27.769531 19.21875 C 29.035156 17.578125 28.414062 15.035156 26.484375 14.214844 C 25.078125 13.621094 23.394531 14.082031 22.496094 15.3125 C 22.15625 15.773438 22.097656 16.570312 21.632812 16.90625 C 21.296875 17.152344 20.84375 17.003906 20.46875 16.964844 C 19.894531 16.910156 19.3125 17.105469 18.75 17.035156 C 18.003906 16.941406 17.84375 15.691406 17.441406 15.15625 C 16.488281 13.890625 14.539062 13.617188 13.203125 14.402344 C 11.503906 15.402344 11.121094 17.773438 12.328125 19.296875 C 12.714844 19.785156 13.949219 20.203125 13.910156 20.890625 C 13.859375 21.691406 13.078125 22.390625 12.691406 23.046875 C 12.144531 23.96875 11.824219 25.035156 11.675781 26.09375 C 11.15625 29.71875 13.238281 33.398438 16.5625 34.898438 C 17.863281 35.484375 19.21875 35.625 20.625 35.625 Z M 20.625 35.625 "/>
<path style=" stroke:none;fill-rule:nonzero;fill:rgb(0.392157%,0.392157%,0.392157%);fill-opacity:1;" d="M 25.46875 15.128906 C 24.320312 15.488281 24.929688 17.285156 26.09375 16.886719 C 27.222656 16.5 26.605469 14.773438 25.46875 15.128906 M 14.609375 17.550781 C 13.457031 17.90625 14.011719 19.679688 15.15625 19.324219 C 16.304688 18.96875 15.761719 17.195312 14.609375 17.550781 M 17.65625 19.957031 C 16.574219 20.152344 15.679688 20.917969 15.320312 21.953125 C 15.140625 22.472656 14.945312 23.558594 15.78125 23.582031 C 16.53125 23.597656 16.679688 21.90625 17.34375 21.480469 C 18.347656 20.839844 20.644531 21.042969 21.796875 21.195312 C 22.464844 21.28125 23.046875 21.578125 23.382812 22.1875 C 23.652344 22.683594 23.570312 23.800781 24.449219 23.558594 C 24.90625 23.433594 24.917969 22.960938 24.863281 22.578125 C 24.746094 21.71875 24.324219 20.933594 23.59375 20.4375 C 22.457031 19.664062 20.910156 19.921875 19.609375 19.921875 C 18.972656 19.921875 18.28125 19.84375 17.65625 19.957031 M 18.28125 21.769531 C 17.148438 22.113281 17.457031 24.5625 18.75 24.167969 C 19.882812 23.824219 19.574219 21.375 18.28125 21.769531 M 21.328125 21.765625 C 20.210938 22.074219 20.457031 24.496094 21.71875 24.183594 C 22.902344 23.890625 22.609375 21.410156 21.328125 21.765625 Z M 21.328125 21.765625 "/>
<path style=" stroke:none;fill-rule:nonzero;fill:rgb(100%,100%,100%);fill-opacity:1;" d="M 21.875 30.859375 L 21.875 34.0625 C 21.875 34.660156 21.796875 35.308594 22.082031 35.859375 C 22.738281 37.109375 24.59375 37.140625 25.234375 35.859375 C 25.890625 34.546875 25.46875 32.296875 25.46875 30.859375 L 24.296875 30.859375 C 24.296875 31.28125 24.40625 31.882812 24.203125 32.265625 C 23.984375 32.683594 23.390625 32.785156 23.140625 32.335938 C 22.921875 31.953125 23.046875 31.289062 23.046875 30.859375 Z M 21.875 30.859375 "/>
</g>
</svg>
